<?xml version="1.0" encoding="UTF-8" standalone="no"?>
<!-- Created with Inkscape (http://www.inkscape.org/) -->

<svg
   xmlns:dc="http://purl.org/dc/elements/1.1/"
   xmlns:cc="http://creativecommons.org/ns#"
   xmlns:rdf="http://www.w3.org/1999/02/22-rdf-syntax-ns#"
   xmlns:svg="http://www.w3.org/2000/svg"
   xmlns="http://www.w3.org/2000/svg"
   xmlns:sodipodi="http://sodipodi.sourceforge.net/DTD/sodipodi-0.dtd"
   xmlns:inkscape="http://www.inkscape.org/namespaces/inkscape"
   id="svg2"
   version="1.1"
   inkscape:version="0.48.2 r9819"
   width="226"
   height="292"
   xml:space="preserve"
   sodipodi:docname="logo-menu.svg"><metadata
     id="metadata8"><rdf:RDF><cc:Work
         rdf:about=""><dc:format>image/svg+xml</dc:format><dc:type
           rdf:resource="http://purl.org/dc/dcmitype/StillImage" /><dc:title /></cc:Work></rdf:RDF></metadata><defs
     id="defs6"><clipPath
       clipPathUnits="userSpaceOnUse"
       id="clipPath18"><path
         d="M 0,2494.84 0,0 l 1804.34,0 0,2494.84 -1804.34,0 z"
         id="path20"
         inkscape:connector-curvature="0" /></clipPath></defs><sodipodi:namedview
     pagecolor="#ffffff"
     bordercolor="#666666"
     borderopacity="1"
     objecttolerance="10"
     gridtolerance="10"
     guidetolerance="10"
     inkscape:pageopacity="0"
     inkscape:pageshadow="2"
     inkscape:window-width="1074"
     inkscape:window-height="879"
     id="namedview4"
     showgrid="false"
     inkscape:zoom="2.727183"
     inkscape:cx="116.76161"
     inkscape:cy="76.024802"
     inkscape:window-x="1650"
     inkscape:window-y="81"
     inkscape:window-maximized="0"
     inkscape:current-layer="layer3"
     fit-margin-top="0"
     fit-margin-left="0"
     fit-margin-right="0"
     fit-margin-bottom="0" /><g
     id="g10"
     inkscape:groupmode="layer"
     inkscape:label="ink_ext_XXXXXX"
     transform="matrix(1.25,0,0,-1.25,-0.76379466,312.88396)"><g
       id="g3393"
       transform="translate(0.61103573,0.20367858)"><path
         d="m 177.718,129.264 c 0,-49.4288 -39.175,-89.4992 -87.5,-89.4992 -48.3242,0 -87.49925,40.0704 -87.49925,89.4992 0,49.43 39.17505,89.501 87.49925,89.501 48.325,0 87.5,-40.071 87.5,-89.501"
         style="fill:#d33833;fill-opacity:1;fill-rule:evenodd;stroke:none"
         id="path22"
         inkscape:connector-curvature="0" /><path
         d="m 6.28438,107.098 c 0,0 -6.33438,93.333 79.66602,96 l -5.9996,10 -46.6664,-15.667 -13.3336,-15.333 -11.66642,-22.334 -6.66719,-26 2,-17.333"
         style="fill:#ef3d3a;fill-opacity:1;fill-rule:nonzero;stroke:none"
         id="path24"
         inkscape:connector-curvature="0" /><path
         d="M 30.2883,190.319 C 14.9363,174.611 5.43633,152.923 5.43633,128.93 l 0,0 c 0,-23.988 9.49997,-45.6788 24.85197,-61.3839 l 0,0 C 45.6477,51.841 66.8152,42.15 90.2168,42.15 l 0,0 c 23.4022,0 44.5712,9.691 59.9292,25.3961 l 0,0 c 15.351,15.7051 24.853,37.3959 24.853,61.3839 l 0,0 c 0,23.993 -9.502,45.681 -24.853,61.389 l 0,0 c -15.358,15.702 -36.527,25.393 -59.9292,25.395 l 0,0 C 66.8152,215.712 45.6477,206.021 30.2883,190.319 l 0,0 z M 26.4023,63.7469 C 10.0867,80.4328 0,103.493 0,128.93 l 0,0 c 0,25.441 10.0867,48.499 26.4023,65.186 l 0,0 c 16.3118,16.69 38.8915,27.035 63.8145,27.032 l 0,0 c 24.9232,0.003 47.5052,-10.342 63.8142,-27.032 l 0,0 c 16.317,-16.687 26.405,-39.747 26.403,-65.186 l 0,0 c 0.002,-25.437 -10.086,-48.4972 -26.403,-65.1831 l 0,0 C 137.722,47.0578 115.14,36.7141 90.2168,36.7141 l 0,0 c -24.923,0 -47.5027,10.3437 -63.8145,27.0328 l 0,0"
         style="fill:#231f20;fill-opacity:1;fill-rule:nonzero;stroke:none"
         id="path26"
         inkscape:connector-curvature="0" /><path
         d="m 127.051,128.768 -13.334,-2 -18.0002,-2 -11.6672,-0.333 -11.3328,0.333 -8.6672,2.667 -7.6668,8.333 -6,17 -1.3332,3.667 -8,2.666 -4.6668,7.667 -3.3332,11 3.6672,9.667 8.666,3 7,-3.334 3.334,-7.333 4,0.667 1.3328,1.666 -1.3328,7.667 -0.334,9.667 2,13.333 -0.0781,7.616 6.0781,9.717 10.6668,7.667 18.6672,8 20.6662,-3 18,-13 8.334,-13.333 5.333,-9.667 1.333,-24 -4,-20.667 -7.333,-18.333 -7,-9.667"
         style="fill:#f0d6b7;fill-opacity:1;fill-rule:evenodd;stroke:none"
         id="path28"
         inkscape:connector-curvature="0" /><path
         d="M 98.926024,44.190991 66.033285,66.22155 94.695519,49.568208 100.93598,21.370526 87.628417,20.607885 70.864314,24.453964 36.7168,42.102 l -2.334,4 -3.3332,37.666 -7.6656,22.667 -1.6672,5.333 26.666,18.333 8.334,3.334 7.3328,-9 6.3332,-5.667 7.334,-2.333 3.3328,-1 4,-17.333 3,-3.6668 7.6672,2.6668 -5.334,-10.334 29.0002,-13.666 5.0107,-16.488051 -14.13508,-10.785051"
         style="fill:#335061;fill-opacity:1;fill-rule:evenodd;stroke:none"
         id="path30"
         inkscape:connector-curvature="0"
         sodipodi:nodetypes="cccccccccccccccccccccccc" /><path
         d="m 36.7168,187.435 8.666,3 7,-3.334 3.334,-7.333 4,0.667 1,4 -2,7.666 2,18.334 -1.6672,10 6,7 13,10.333 -3.6668,5 -18.3332,-9 -7.6668,-6 -4.3332,-9.333 -6.6668,-9 -2,-10.667 1.334,-11.333"
         style="fill:#6d6b6d;fill-opacity:1;fill-rule:evenodd;stroke:none"
         id="path32"
         inkscape:connector-curvature="0" /><path
         d="m 50.3828,218.768 c 0,0 5,12.333 25,18.333 20,6 1,4.334 1,4.334 l -21.666,-8.334 -8.334,-8.333 -3.666,-6.667 7.666,0.667"
         style="fill:#dcd9d8;fill-opacity:1;fill-rule:evenodd;stroke:none"
         id="path34"
         inkscape:connector-curvature="0" /><path
         d="m 40.3828,189.768 c 0,0 -7,23.334 19.6668,26.667 l -1,4 -18.3328,-4.334 -5.334,-17.333 1.334,-11.333 3.666,2.333"
         style="fill:#dcd9d8;fill-opacity:1;fill-rule:evenodd;stroke:none"
         id="path36"
         inkscape:connector-curvature="0" /><path
         d="m 51.0496,158.768 4.3645,4.229 c 0,0 1.9699,-0.229 2.3027,-2.562 0.3328,-2.334 1.3328,-23.334 15.666,-34.668 1.3074,-1.034 -10.666,1.668 -10.666,1.668 l -10.6672,16.666"
         style="fill:#f7e4cd;fill-opacity:1;fill-rule:evenodd;stroke:none"
         id="path38"
         inkscape:connector-curvature="0" /><path
         d="m 112.385,165.101 c 0,0 0.777,10.104 3.498,9.327 2.721,-0.777 2.721,-3.498 2.721,-3.498 0,0 -6.608,-4.275 -6.219,-5.829"
         style="fill:#f7e4cd;fill-opacity:1;fill-rule:evenodd;stroke:none"
         id="path40"
         inkscape:connector-curvature="0" /><path
         d="m 140.05,202.101 c 0,0 -5.494,-1.16 -6,-6 -0.506,-4.841 6,-1 7,-0.667"
         style="fill:#f7e4cd;fill-opacity:1;fill-rule:nonzero;stroke:none"
         id="path42"
         inkscape:connector-curvature="0" /><path
         d="m 99.7168,201.767 c 0,0 -7.334,-1 -7.334,-5.666 0,-4.667 8.3342,-4.334 10.6672,-2.334"
         style="fill:#f7e4cd;fill-opacity:1;fill-rule:nonzero;stroke:none"
         id="path44"
         inkscape:connector-curvature="0" /><path
         d="m 54.3828,180.101 c 0,0 -12.6672,7.667 -14,0.333 -1.3332,-7.333 -4.334,-12.667 2,-20.333 l -4.3332,1.333 -4,10.333 -1.3328,10 7.666,8.001 8.6668,-0.667 5,-4 0.3332,-5"
         style="fill:#f7e4cd;fill-opacity:1;fill-rule:evenodd;stroke:none"
         id="path46"
         inkscape:connector-curvature="0" /><path
         d="m 60.3828,201.101 c 0,0 5.6668,29.333 34.334,35 23.6012,4.665 35.9992,-1 40.6662,-6.333 0,0 -21,24.999 -41.0002,17.333 -20,-7.667 -34.666,-21.667 -34.3332,-30.666 0.5676,-15.328 0.3332,-15.334 0.3332,-15.334"
         style="fill:#f7e4cd;fill-opacity:1;fill-rule:evenodd;stroke:none"
         id="path48"
         inkscape:connector-curvature="0" /><path
         d="m 137.717,226.435 c 0,0 -9.666,0.333 -10,-8.334 0,0 -0.001,-1.333 0.666,-2.666 0,0 7.668,8.667 12.334,4"
         style="fill:#f7e4cd;fill-opacity:1;fill-rule:evenodd;stroke:none"
         id="path50"
         inkscape:connector-curvature="0" /><path
         d="m 95.3887,214.532 c 0,0 -1.6641,13.303 -13.0059,5.569 -7.3332,-5 -6.666,-12 -5.3332,-13.333 1.3332,-1.334 0.9707,-4.019 1.9856,-2.176 1.0144,1.843 0.6804,7.843 4.3476,9.509 3.6668,1.667 9.6777,3.529 12.0059,0.431"
         style="fill:#f7e4cd;fill-opacity:1;fill-rule:evenodd;stroke:none"
         id="path52"
         inkscape:connector-curvature="0" /><path
         d="m 64.0496,124.435 -31.3328,-14 c 0,0 13,-51.667 6.3328,-67.667 l -4.6668,1.666 -0.3332,19.6672 -8.6656,37.3328 -3.6672,10.334 32.666,21.999 9.6668,-9.332"
         style="fill:#49728b;fill-opacity:1;fill-rule:evenodd;stroke:none"
         id="path54"
         inkscape:connector-curvature="0" /><path
         d="m 67.2715,95.8578 4.4453,-5.4238 0,-26.4 -5.334,0 c 0,0 -0.666,20.4 -0.666,22.0672 0,1.6668 0.666,7.6668 0.666,7.6668"
         style="fill:#49728b;fill-opacity:1;fill-rule:evenodd;stroke:none"
         id="path56"
         inkscape:connector-curvature="0"
         sodipodi:nodetypes="ccccsc" /><path
         d="M 96.203054,49.714601 53.9828,66.768 74.334004,54.532253 96.538355,44.132142"
         style="fill:#49728b;fill-opacity:1;fill-rule:evenodd;stroke:none"
         id="path58"
         inkscape:connector-curvature="0"
         sodipodi:nodetypes="cccc" /><path
         d="m 122.05,70.768 12.06332,-18.666214 c 0,0 14.26968,38.999414 14.26968,39.999414 0,1 6.667,27.9998 6.667,27.9998 l -15,15.666 -3,2.667 -8,-8 0,-31 -9.07932,-38.32901"
         style="fill:#335061;fill-opacity:1;fill-rule:evenodd;stroke:none"
         id="path62"
         inkscape:connector-curvature="0"
         sodipodi:nodetypes="ccscccccc" /><path
         d="m 130.717,131.434 23.333,-17.333 0.667,8 -17.667,16.333 -6.333,-7"
         style="fill:#49728b;fill-opacity:1;fill-rule:evenodd;stroke:none"
         id="path66"
         inkscape:connector-curvature="0" /><path
         d="m 99.528749,20.383573 13.000001,3.6668 21.61082,2.147914 6.72218,10.518186 -5.067,14.8671 -7.666,1 -10.667,-3.3332 -10.43768,-4.385764 -5.02564,-0.836307 -6.06711,0.373185"
         style="fill:#ffffff;fill-opacity:1;fill-rule:evenodd;stroke:none"
         id="path72"
         inkscape:connector-curvature="0"
         sodipodi:nodetypes="cccccccccc" /><path
         d="m 99.526856,29.149215 c 0,0 4.592434,-2.111157 7.963214,-2.240679 l -0.33484,8.555964 -2.72012,8.963322 4.333,1.666 c 0,0 3,-17.3328 3,-19.3328 0,0 14.38875,2.229429 20.12932,5.284607 0,0 6.44414,6.783472 6.4523,15.79163 l 2.50671,-3.619134 -1.75533,-13.057103 -3.29621,-3.315392 c -10.00137,-4.568414 -17.73614,-6.152378 -22.38818,-6.326058 l -9.04861,-0.210821 -5.267004,-0.519286"
         style="fill:#dcd9d8;fill-opacity:1;fill-rule:evenodd;stroke:none"
         id="path74"
         inkscape:connector-curvature="0"
         sodipodi:nodetypes="cccccccccccccc" /><path
         d="m 121.284,73.4309 -7.333,18.6671 -7.667,11 c 0,0 1.666,4.667 4,4.667 2.334,0 7.667,0 7.667,0 l 7.333,-2.667 -0.666,-12.3332 -3.334,-19.3339"
         style="fill:#ffffff;fill-opacity:1;fill-rule:nonzero;stroke:none"
         id="path76"
         inkscape:connector-curvature="0" /><path
         d="m 122.717,79.768 c 0,0 -9.334,17.9992 -9.334,20.666 0,0 1.666,4 4,3 2.334,-1 7.334,-3.666 7.334,-3.666 l 0,6.333 -11.334,2.334 -7.666,-1 13,-30.667 2.666,-0.334"
         style="fill:#dcd9d8;fill-opacity:1;fill-rule:evenodd;stroke:none"
         id="path78"
         inkscape:connector-curvature="0" /><path
         d="m 81.9512,123.764 -9.2344,1.004 -8.6672,2.667 0,-3 4.2348,-4.67 13.3332,-6"
         style="fill:#ffffff;fill-opacity:1;fill-rule:nonzero;stroke:none"
         id="path80"
         inkscape:connector-curvature="0" /><path
         d="m 67.0508,122.765 c 0,0 10.334,-4.334 13.6672,-3.334 l 0.3316,-3.996 -9.3316,1.996 -5.6672,4 1,1.334"
         style="fill:#dcd9d8;fill-opacity:1;fill-rule:evenodd;stroke:none"
         id="path82"
         inkscape:connector-curvature="0" /><path
         d="m 134.582,106.63 c -5.656,0.166 -10.766,0.838 -15.24,2.1 0.304,1.834 -0.265,3.634 0.192,4.955 1.247,0.898 3.337,0.884 5.222,1.095 -1.63,0.801 -3.92,1.118 -5.801,0.655 -0.044,1.273 -0.615,2.062 -0.961,3.058 3.18,1.135 10.687,8.576 14.91,6.112 2.012,-1.172 2.867,-7.866 3.023,-11.121 0.13,-2.7 -0.245,-5.424 -1.345,-6.854"
         style="fill:#d33833;fill-opacity:1;fill-rule:evenodd;stroke:none"
         id="path84"
         inkscape:connector-curvature="0" /><path
         d="m 134.582,106.63 c -5.656,0.166 -10.766,0.838 -15.24,2.1 0.304,1.834 -0.265,3.634 0.192,4.955 1.247,0.898 3.337,0.884 5.222,1.095 -1.63,0.801 -3.92,1.118 -5.801,0.655 -0.044,1.273 -0.615,2.062 -0.961,3.058 3.18,1.135 10.687,8.576 14.91,6.112 2.012,-1.172 2.867,-7.866 3.023,-11.121 0.13,-2.7 -0.245,-5.424 -1.345,-6.854 z"
         style="fill:none;stroke:#d33833;stroke-width:2;stroke-linecap:butt;stroke-linejoin:miter;stroke-miterlimit:4;stroke-opacity:1;stroke-dasharray:none"
         id="path86"
         inkscape:connector-curvature="0" /><path
         d="m 107.535,115.876 c -0.015,-0.428 -0.033,-0.859 -0.05,-1.291 -1.766,-1.16 -4.617,-1.146 -6.555,-2.121 2.857,-0.125 5.106,-0.813 7.052,-1.783 -0.043,-1.078 -0.084,-2.155 -0.126,-3.233 -3.237,-2.216 -6.194,-5.516 -10.0052,-7.5941 -1.802,-0.9828 -8.1262,-3.5117 -10.0434,-3.0648 -1.0847,0.2519 -1.1824,1.598 -1.616,2.8668 -0.9238,2.7171 -3.0508,7.0421 -3.2363,11.1321 -0.2363,5.166 -0.7578,13.824 4.8094,12.76 4.4914,-0.857 9.7152,-2.926 13.1925,-4.826 2.125,-1.162 3.354,-2.598 6.578,-2.846"
         style="fill:#d33833;fill-opacity:1;fill-rule:evenodd;stroke:none"
         id="path88"
         inkscape:connector-curvature="0" /><path
         d="m 107.535,115.876 c -0.015,-0.428 -0.033,-0.859 -0.05,-1.291 -1.766,-1.16 -4.617,-1.146 -6.555,-2.121 2.857,-0.125 5.106,-0.813 7.052,-1.783 -0.043,-1.078 -0.084,-2.155 -0.126,-3.233 -3.237,-2.216 -6.194,-5.516 -10.0052,-7.5941 -1.802,-0.9828 -8.1262,-3.5117 -10.0434,-3.0648 -1.0847,0.2519 -1.1824,1.598 -1.616,2.8668 -0.9238,2.7171 -3.0508,7.0421 -3.2363,11.1321 -0.2363,5.166 -0.7578,13.824 4.8094,12.76 4.4914,-0.857 9.7152,-2.926 13.1925,-4.826 2.125,-1.162 3.354,-2.598 6.578,-2.846 z"
         style="fill:none;stroke:#d33833;stroke-width:2;stroke-linecap:butt;stroke-linejoin:miter;stroke-miterlimit:4;stroke-opacity:1;stroke-dasharray:none"
         id="path90"
         inkscape:connector-curvature="0" /><path
         d="m 110.75,109.712 c -0.494,2.814 -1.065,3.617 -0.844,6.072 7.505,5.004 8.914,-8.595 0.844,-6.072"
         style="fill:#d33833;fill-opacity:1;fill-rule:evenodd;stroke:none"
         id="path92"
         inkscape:connector-curvature="0" /><path
         d="m 110.75,109.712 c -0.494,2.814 -1.065,3.617 -0.844,6.072 7.505,5.004 8.914,-8.595 0.844,-6.072 z"
         style="fill:none;stroke:#d33833;stroke-width:2;stroke-linecap:butt;stroke-linejoin:miter;stroke-miterlimit:4;stroke-opacity:1;stroke-dasharray:none"
         id="path94"
         inkscape:connector-curvature="0" /><path
         d="m 121.617,107.431 c 0,0 -2.334,3.334 -0.667,4.334 1.667,1 3.334,-0.001 4.334,1.666 1,1.667 0,2.667 0.333,4.667 0.333,2 2.001,2.334 3.667,2.667 1.666,0.333 6.334,1 7,-0.667 l -2,6 -4,1.333 -12.667,-7.333 -0.667,-3.667 0,-7.333"
         style="fill:#ef3d3a;fill-opacity:1;fill-rule:evenodd;stroke:none"
         id="path96"
         inkscape:connector-curvature="0" /><path
         d="m 86.6172,96.4309 c -0.4004,5.2021 -0.8242,10.3971 -1.2957,15.5941 -0.7055,7.76 1.864,6.406 8.5906,6.406 1.0274,0 6.3259,-1.225 6.7049,-2 1.818,-3.713 -3.04,-2.888 2.094,-5.688 4.334,-2.363 11.99,1.435 10.239,6.688 -0.98,1.168 -5.106,0.364 -6.585,1.131 -2.604,1.35 -5.208,2.7 -7.8123,4.05 -3.3132,1.719 -10.9707,4.225 -14.5031,1.823 -8.9504,-6.087 0.5649,-21.296 3.7578,-27.6459"
         style="fill:#ef3d3a;fill-opacity:1;fill-rule:evenodd;stroke:none"
         id="path98"
         inkscape:connector-curvature="0" /><path
         d="m 95.3887,214.532 c -9.0852,2.116 -13.5996,-3.802 -16.3535,-9.94 -2.459,0.596 -1.4805,3.94 -0.8594,5.644 1.6262,4.472 8.1797,10.425 13.5344,9.618 2.3043,-0.347 5.4226,-2.454 3.6785,-5.322"
         style="fill:#231f20;fill-opacity:1;fill-rule:evenodd;stroke:none"
         id="path100"
         inkscape:connector-curvature="0" /><path
         d="m 139.655,204.186 c 0.143,-0.006 0.288,-0.011 0.431,-0.017 2.053,-4.265 3.83,-8.783 6.42,-12.548 -1.735,-4.041 -13.138,-7.617 -12.962,-0.361 2.466,1.078 6.723,0.22 8.909,1.597 -1.264,3.469 -3.088,6.422 -2.798,11.329"
         style="fill:#231f20;fill-opacity:1;fill-rule:evenodd;stroke:none"
         id="path102"
         inkscape:connector-curvature="0" /><path
         d="m 100.04,204.075 c 1.948,-3.571 2.582,-7.323 5.351,-10.022 1.247,-1.215 3.672,-2.696 2.47,-6.075 -0.281,-0.797 -2.334,-2.574 -3.519,-2.923 -4.329,-1.278 -14.4162,-0.264 -11.0002,5.133 3.5801,-0.167 8.3922,-2.325 11.0682,0.274 -2.055,3.285 -5.7186,9.784 -4.37,13.613"
         style="fill:#231f20;fill-opacity:1;fill-rule:evenodd;stroke:none"
         id="path104"
         inkscape:connector-curvature="0" /><path
         d="m 138.03,167.781 c -6.518,-4.187 -13.786,-8.74 -24.466,-7.684 -2.282,1.984 -3.152,6.399 -0.935,9.315 1.154,-1.984 0.429,-5.633 3.645,-6.182 6.06,-1.037 13.113,3.707 17.472,5.365 2.703,4.557 -0.233,6.233 -2.668,9.166 -4.985,6.009 -11.672,13.457 -11.429,22.453 2.015,1.461 2.189,-2.23 2.478,-2.902 2.603,-6.092 9.154,-13.883 13.935,-19.097 1.174,-1.284 3.107,-2.516 3.322,-3.365 0.62,-2.469 -1.613,-5.427 -1.354,-7.069"
         style="fill:#231f20;fill-opacity:1;fill-rule:evenodd;stroke:none"
         id="path106"
         inkscape:connector-curvature="0" /><path
         d="m 52.1016,172.189 c -2.043,1.166 -2.5293,6.302 -4.9278,6.448 -3.4277,0.208 -2.8027,-6.663 -2.789,-10.681 -2.3594,2.142 -2.7743,8.737 -1.041,12.124 -1.9754,0.97 -2.8575,-1.07 -3.9532,-1.789 1.4082,10.23 14.9649,4.745 12.711,-6.102"
         style="fill:#231f20;fill-opacity:1;fill-rule:evenodd;stroke:none"
         id="path108"
         inkscape:connector-curvature="0" /><path
         d="m 142.18,163.521 c -3.034,-5.775 -7.326,-12.135 -16.229,-12.32 -0.181,1.865 -0.32,4.703 0.01,5.826 6.806,0.654 11.008,4.118 16.219,6.494"
         style="fill:#231f20;fill-opacity:1;fill-rule:evenodd;stroke:none"
         id="path110"
         inkscape:connector-curvature="0" /><path
         d="m 99.5266,159.777 c 5.6784,-2.986 16.1144,-3.307 23.8324,-3.081 0.414,-1.691 0.404,-3.78 0.42,-5.842 -9.921,-0.495 -21.651,1.96 -24.2524,8.923"
         style="fill:#231f20;fill-opacity:1;fill-rule:evenodd;stroke:none"
         id="path112"
         inkscape:connector-curvature="0" /><path
         d="m 98.4473,154.209 c 3.9267,-9.859 17.4227,-8.724 28.8037,-8.452 -0.501,-1.28 -1.587,-2.792 -2.937,-3.339 -3.647,-1.484 -13.706,-2.61 -18.769,0.079 -3.211,1.707 -5.274,5.564 -7.0333,7.825 -0.8496,1.092 -5.0801,3.881 -0.0644,3.887"
         style="fill:#231f20;fill-opacity:1;fill-rule:evenodd;stroke:none"
         id="path114"
         inkscape:connector-curvature="0" /><path
         d="m 137.556,99.8262 c -4.608,-7.8922 -9.017,-15.9981 -14.484,-22.9594 2.292,6.7391 3.273,18.0184 3.619,26.6172 4.795,2.244 8.901,-0.505 10.865,-3.6578"
         style="fill:#81b0c4;fill-opacity:1;fill-rule:evenodd;stroke:none"
         id="path116"
         inkscape:connector-curvature="0" /><path
         d="m 135.06595,33.9764 c -4.10732,-3.288154 -10.27837,-2.84213 -13.26702,-6.904488 4.76499,-0.387542 9.13973,2.26893 13.26702,6.904488"
         style="fill:#231f20;fill-opacity:1;fill-rule:evenodd;stroke:none"
         id="path118"
         inkscape:connector-curvature="0"
         sodipodi:nodetypes="ccc" /><path
         d="m 130.34402,40.909648 c -3.04311,-2.93575 -6.73944,-6.281573 -9.21219,-9.774236 3.66027,-0.435713 7.84536,6.207327 9.21219,9.774236"
         style="fill:#231f20;fill-opacity:1;fill-rule:evenodd;stroke:none"
         id="path120"
         inkscape:connector-curvature="0"
         sodipodi:nodetypes="ccc" /><path
         d="m 128.69228,46.119523 c -3.11627,-3.554513 -9.5639,-7.73417 -12.16257,-11.417504 3.89409,0.200925 11.32913,8.244164 12.20559,11.509798"
         style="fill:#231f20;fill-opacity:1;fill-rule:evenodd;stroke:none"
         id="path122"
         inkscape:connector-curvature="0"
         sodipodi:nodetypes="ccc" /><path
         d="m 121.045,124.849 c -2.373,-1.549 -4.394,-3.483 -6.673,-5.137 -5.054,-0.25 -7.812,0.35 -11.525,3.252 0.061,0.233 0.434,0.129 0.448,0.415 5.41,-2.411 12.287,0.982 17.75,1.47"
         style="fill:#f0d6b7;fill-opacity:1;fill-rule:evenodd;stroke:none"
         id="path126"
         inkscape:connector-curvature="0" /><path
         d="m 92.6445,87.9711 c 1.4864,6.441 7.3106,9.7769 12.5995,13.3239 5.459,-6.9282 8.779,-15.838 12.435,-24.436 -8.638,2.6039 -17.464,6.8289 -25.0345,11.1121"
         style="fill:#81b0c4;fill-opacity:1;fill-rule:evenodd;stroke:none"
         id="path128"
         inkscape:connector-curvature="0" /><path
         d="m 107.198,42.568 c -1.661,0.3808 -5.195,-1.5852 -6.782,-1.616 0.746,-7.4301 4.44796,-12.458429 -0.007,-18.6282 2.497,-0.0777 6.62364,-0.296321 8.67764,0.09978 0.11,6.8461 1.40936,14.474421 -1.88864,20.14442 z m 20.484,-16.5629 c 6.96822,0.519177 12.90219,7.695259 11.44619,14.242159 -0.18487,4.4 1.27513,3.044693 -0.58687,6.939662 0.55595,2.40711 -4.50493,3.8567 -8.50232,5.004079 -1.2115,-0.775775 -3.80587,-0.261726 -4.19072,-1.99342 -7.20824,-4.888131 -11.55485,-1.347604 -15.92628,-5.76668 1.772,-5.9 2.93304,-16.448043 3.053,-21.4797 3.38983,-0.715604 12.0482,1.746099 14.707,3.0539 z M 117.679,76.859 c -3.656,8.598 -6.976,17.5078 -12.435,24.436 C 99.9551,97.748 94.1309,94.4121 92.6445,87.9711 100.215,83.6879 109.041,79.4629 117.679,76.859 z m 9.012,26.625 c -0.346,-8.5988 -1.327,-19.8781 -3.619,-26.6172 5.467,6.9613 9.876,15.0672 14.484,22.9594 -1.964,3.1528 -6.07,5.9018 -10.865,3.6578 z m -10.216,3.63 c -2.071,0.223 -3.829,-2.381 -6.522,-1.255 -0.617,-0.682 -1.178,-1.421 -1.807,-2.087 5.948,-7.1681 8.651,-17.338 13.245,-25.7618 2.465,8.0918 2.181,16.957 2.724,25.7888 -3.387,-0.215 -5.266,3.063 -7.64,3.315 z m -6.569,8.67 c -0.221,-2.455 0.35,-3.258 0.844,-6.072 8.07,-2.523 6.661,11.076 -0.844,6.072 z m -8.949,2.938 c -3.4773,1.9 -8.7011,3.969 -13.1925,4.826 -5.5672,1.065 -5.0457,-7.594 -4.8094,-12.76 0.1855,-4.09 2.3125,-8.415 3.2363,-11.1321 0.4336,-1.2688 0.5313,-2.6149 1.616,-2.8668 1.9172,-0.4469 8.2414,2.082 10.0434,3.0648 3.8112,2.0781 6.7682,5.3781 10.0052,7.5941 0.042,1.078 0.083,2.155 0.126,3.233 -1.946,0.97 -4.195,1.658 -7.052,1.783 1.938,0.975 4.789,0.961 6.555,2.121 0.017,0.432 0.035,0.863 0.05,1.291 -3.224,0.248 -4.453,1.684 -6.578,2.846 z m -33.2136,6.033 c -2.886,-2.93 8.0945,-6.924 11.5906,-7.139 -0.0195,1.854 1.0566,3.602 0.8398,4.932 -4.1523,0.729 -9.6093,0.248 -12.4304,2.207 z m 35.5516,-1.376 c -0.014,-0.286 -0.387,-0.182 -0.448,-0.415 3.713,-2.902 6.471,-3.502 11.525,-3.252 2.279,1.654 4.3,3.588 6.673,5.137 -5.463,-0.488 -12.34,-3.881 -17.75,-1.47 z m 32.632,-9.895 c -0.156,3.255 -1.011,9.949 -3.023,11.121 -4.223,2.465 -11.73,-4.977 -14.91,-6.112 0.346,-0.996 0.917,-1.785 0.961,-3.058 1.881,0.463 4.171,0.146 5.801,-0.655 -1.885,-0.211 -3.975,-0.197 -5.222,-1.095 -0.457,-1.321 0.112,-3.121 -0.192,-4.955 4.474,-1.262 9.584,-1.934 15.24,-2.1 1.1,1.43 1.475,4.154 1.345,6.854 z m -73.0422,8.437 c -0.9063,0.646 -7.0371,8.623 -7.877,8.292 C 43.9141,125.838 33.541,118.273 24.2715,111.118 33.1094,92.1539 36.677,68.9199 37.3074,46.5262 51.198334,39.981678 81.02624,14.005489 94.36017,24.980475 100.27615,28.273712 93.70954,42.748527 93.25834,48.043427 89.80644,49.498525 57.7148,66.059 54.4844,66.5762 c -0.0274,3.8929 4.9336,1.7047 5.3468,4.3226 0.3114,1.9801 -2.7296,2.1301 -1.7394,5.2481 2.5254,-0.918 3.8516,-2.9457 6.5449,-3.7071 2.461,5.384 -0.0344,14.9102 0.3203,19.4102 0.0672,0.8449 0.4219,4.6809 2.3145,4.0078 1.675,-0.5957 -0.0957,-10.2019 0.0879,-14.4609 0.1672,-3.9239 0.10219,-13.4816 1.69129,-15.9449 6.6377,0.9035 20.273685,-14.28974 27.101135,-13.722603 1.706863,0.141785 2.470329,-6.672054 4.987605,-6.732638 2.51728,-0.06058 7.93112,1.435766 9.10105,3.11659 1.16994,1.680825 9.18271,4.026456 13.09074,3.594338 -0.5729,4.25249 -10.12821,21.230569 -8.33274,21.279831 -3.16,1.3559 -12.30848,4.233583 -16.42428,6.553483 -2.2312,1.2578 -9.2644,3.875 -9.9082,5.9942 -1.0273,3.3769 2.6953,5.1757 3.332,8.0707 -6.7011,-3.6547 -8.0085,3.5031 -9.5937,8.574099 -1.4363,4.593 -2.2539,8.024 -2.6063,10.673 -5.7726,2.752 -11.9445,5.539 -16.9132,9.068 z m 67.1792,7.327 c 9.243,4.482 10.909,-16.751 7.286,-23.591 0.56,-2.04 2.486,-2.821 3.272,-4.655 -5.158,-9.2399 -10.887,-17.8649 -16.15,-26.9961 3.915,2.4371 5.85918,-14.762975 9.314,-20.1399 4.8525,9.30735 7.703,26.9211 8.978,30.0051 3.507,8.4848 7.189,19.1819 8.827,27.2789 0.37,1.845 1.378,5.865 1.152,7.507 -0.403,2.94 -4.392,5.12 -6.421,6.938 -3.738,3.358 -6.092,6.313 -9.991,9.453 -1.581,-2.334 -4.974,-3.902 -6.267,-5.8 z m -88.3179,81.968 c -4.4043,-4.846 -3.4824,-13.926 -2.9492,-20.386 7.9609,5.008 18.5273,-0.396 18.4277,-8.914 3.8008,0.101 1.4199,4.747 0.7324,7.74 -2.2468,9.776 3.7852,20.397 0.2735,29.337 -6.8184,-0.517 -12.42,-3.302 -16.4844,-7.777 z m 31.5137,28.126 c -9.9707,-2.826 -22.7493,-10.071 -26.8465,-19.028 3.1726,0.461 5.375,2.061 8.5047,2.259 1.1828,0.077 2.7324,-0.496 4.0918,-0.158 2.709,0.672 4.9953,6.746 7.039,9.006 1.9922,2.207 4.3867,3.15 6.0254,5.162 1.0528,0.508 2.6094,0.473 2.6692,2.054 -0.4563,0.488 -0.9368,0.86 -1.4836,0.705 z m 51.9032,-2.658 c -10.349,5.839 -27.8661,10.231 -38.8747,4.743 -8.8828,-4.429 -20.8899,-11.757 -24.9836,-21.043 3.8242,-8.961 -1.1328,-17.172 -1.4492,-26.27 -0.168,-4.841 2.2793,-9.067 2.4668,-14.337 -1.3086,-2.159 -5.3067,-2.425 -8.0743,-2.277 -0.9316,4.662 -2.5625,9.902 -7.3632,10.428 -6.793,0.743 -11.7598,-4.879 -12.0684,-10.754 -0.3652,-6.909 5.3066,-18.36 13.3457,-17.565 3.1055,0.307 3.8684,3.42 7.252,3.388 1.8339,-3.659 -2.8289,-4.808 -3.3086,-7.425 -0.125,-0.676 0.3867,-3.318 0.6843,-4.557 1.4602,-6.033 4.7153,-13.841 7.9192,-18.434 4.0664,-5.826 12.0555,-6.704 20.6504,-7.275 1.5351,3.307 7.1902,3.035 10.875,2.17 -4.416,1.749 -8.5215,5.989 -11.9239,9.742 -3.9082,4.306 -7.8671,8.925 -8.0671,14.553 7.3855,-10.246 13.4871,-19.194 26.9168,-23.701 10.1618,-3.408 22.0298,1.562 29.8378,7.045 3.24,2.279 5.174,5.895 7.477,9.205 8.617,12.395 12.638,30.087 11.754,47.235 -0.364,7.072 -0.348,14.12 -2.721,18.878 -2.48,4.975 -10.868,9.426 -15.778,4.926 -0.91,4.838 4.083,7.83 9.948,6.089 -4.182,5.397 -8.571,11.882 -14.515,15.236 z M 139.644,57.9168 c 3.76633,-8.437646 1.94689,-10.134631 1.94689,-10.134631 1.43893,-0.609671 1.28232,-4.60264 0.95511,-6.349369 2.80923,-5.24071 -4.684,-16.443 -10.663,-18.3949 -4.87334,-1.314614 -16.37505,-5.983743 -21.94793,-4.918393 C 106.20778,17.88835 100.70328,19.272029 97.93,18.627 95.478954,16.67649 92.744353,16.682116 90.556491,16.503486 69.983424,17.417508 57.103912,30.039682 41.0676,37.7461 c -2.9121,1.35 -6.9406,2.0937 -8.0285,4.4117 -1.0547,2.2442 -0.6231,6.5453 -0.8848,10.6082 -0.666,10.377 -1.2363,20.386 -3.9766,31.011 -1.2304,4.7679 -3.375,8.975 -4.8711,13.5691 -1.3828,4.2579 -3.7988,9.5199 -4.4289,13.7659 -0.9343,6.293 4.9914,6.643 8.7805,9.37 5.8574,4.217 10.4551,6.549 16.7988,10.355 1.8789,1.127 7.545,3.98 8.1895,5.294 1.2812,2.605 -2.1992,6.278 -3.1297,8.32 -1.4719,3.229 -2.2395,5.972 -2.4504,9.158 -5.3215,0.841 -9.3555,4.008 -11.7922,7.579 -4.0308,5.91 -6.8262,16.844 -3.3387,25.161 0.2735,0.655 1.6375,1.943 1.8387,2.949 0.3969,1.981 -0.7469,4.615 -0.818,6.722 -0.3664,10.81 1.829,20.124 9.1063,23.384 2.9543,11.769 13.5281,15.682 23.4902,21.531 3.7239,2.186 7.8289,3.583 12.0684,5.143 15.2082,5.597 38.5419,4.543 51.1639,-5.003 5.352,-4.048 13.907,-12.595 16.967,-18.783 8.082,-16.337 7.508,-43.64 1.855,-63.513 -0.76,-2.668 -1.862,-6.59 -3.401,-9.795 -1.073,-2.238 -4.408,-6.716 -4.003,-8.692 0.417,-2.043 7.604,-7.5 9.145,-8.986 2.775,-2.677 8.047,-6.23 8.474,-9.608 0.459,-3.595 -1.584,-8.513 -2.619,-11.982 -3.46,-11.5769 -4.94795,-16.166145 -8.87095,-26.487245"
         style="fill:#231f20;fill-opacity:1;fill-rule:evenodd;stroke:none"
         id="path130"
         inkscape:connector-curvature="0"
         sodipodi:nodetypes="cccccccccccccccccccccccccccccccccccccccccccccccccccccccccccccccccccccccsccssscccccccccccccccccccccccccccccccccccccccccccccccccccccccccccccccccccccccccccccccccccccccccccc" /><path
         d="m 90.491,157.255 c 0.4387,0.584 2.8508,1.471 6.2258,-0.154 0,0 -4,-0.667 -3.6672,-7.336 l -1.6668,0.334 c 0,0 -1.7226,6.047 -0.8918,7.156"
         style="fill:#f7e4cd;fill-opacity:1;fill-rule:evenodd;stroke:none"
         id="path132"
         inkscape:connector-curvature="0" /><path
         d="m 119.717,99.934 c 0,-1.0121 -0.821,-1.8328 -1.834,-1.8328 -1.012,0 -1.833,0.8207 -1.833,1.8328 0,1.012 0.821,1.834 1.833,1.834 1.013,0 1.834,-0.822 1.834,-1.834"
         style="fill:#1d1919;fill-opacity:1;fill-rule:evenodd;stroke:none"
         id="path134"
         inkscape:connector-curvature="0" /><path
         d="m 121.55,91.434 c 0,-1.0121 -0.821,-1.8328 -1.834,-1.8328 -1.012,0 -1.833,0.8207 -1.833,1.8328 0,1.0121 0.821,1.834 1.833,1.834 1.013,0 1.834,-0.8219 1.834,-1.834"
         style="fill:#1d1919;fill-opacity:1;fill-rule:evenodd;stroke:none"
         id="path136"
         inkscape:connector-curvature="0" /></g></g><g
     inkscape:groupmode="layer"
     id="layer2"
     inkscape:label="Layer"
     style="display:inline"
     transform="translate(-0.76379466,0.88396145)"><g
       id="g3861"
       transform="matrix(1,0,0,1.0496062,-218.9142,-37.199158)"><g
         id="g3866"
         transform="translate(2,-12)"><path
           sodipodi:nodetypes="ccccccccc"
           inkscape:connector-curvature="0"
           id="path3844"
           d="m 322.39496,208.13667 c 16.02374,3.84071 35.88916,-1.58893 49.73491,9.96722 9.69446,-1.89516 24.56551,-11.93033 45.47629,-13.87377 -0.0125,0.0574 -0.0644,0.12135 -0.0824,0.18018 0.9598,10.14434 -2.18392,25.79568 -2.90365,35.36653 -2.55534,19.92437 -1.13932,29.14289 5.27309,39.64081 -11.88854,-4.9077 -37.29462,3.60874 -45.37082,11.04093 -9.95373,-4.94528 -23.77999,-14.72118 -45.83892,-4.0765 2.14209,-24.42547 4.88736,-60.89654 -6.2885,-78.2454 z"
           style="fill:#ffffff;fill-opacity:1;fill-rule:nonzero;stroke:none" /><path
           style="fill:#dcd9d8;fill-opacity:1"
           d="m 411.37876,250.88559 c 2.40623,7.43911 1.3843,20.44442 6.04821,27.06764 -13.1425,-3.66996 -28.44582,1.07525 -42.75371,10.86803 -3.64684,-0.20634 -8.26645,-2.94899 -12.35112,-5.24848 0.14285,-4.78032 10.17955,-10.5624 18.70001,-13.34666 4.87798,-1.10732 9.36023,3.36255 9.25525,5.87241 5.88174,-3.14611 12.87737,-3.71602 18.32608,-3.94408 -0.49852,-4.82632 -0.5102,-13.85679 2.77528,-21.26882 z"
           id="path3850"
           inkscape:connector-curvature="0"
           sodipodi:nodetypes="ccccccccc" /><path
           style="fill:#231f20;fill-opacity:1;fill-rule:nonzero;stroke:none"
           d="m 321.90254,207.74063 c 16.1856,3.87951 36.25168,-1.60498 50.23729,10.0679 9.79238,-1.9143 24.81364,-12.05084 45.93564,-14.01391 -0.0126,0.058 -0.0651,0.12258 -0.0832,0.182 0.9695,10.24681 -2.20598,26.05625 -2.93298,35.72377 -2.58115,20.12563 -1.15083,29.39877 5.32636,40.00273 -14.26915,-4.66326 -37.67134,3.68368 -45.82912,11.19095 -10.05427,-4.99524 -23.18808,-14.07937 -46.24133,-4.09652 1.55208,-23.22623 4.88418,-61.51859 -6.41266,-79.05692 z m 3.44236,2.15799 c 2.1119,2.55048 4.22942,8.11049 4.74014,10.81593 3.98538,11.37618 4.60063,43.05624 0.85478,62.23503 8.00427,-3.69689 31.47692,-3.68259 42.79574,3.34252 1.1457,-20.65642 -1.71469,-45.35805 -3.04732,-65.88358 -8.04878,-9.81209 -33.08462,-7.98128 -45.34334,-10.5099 z m 89.02107,-2.33402 c -18.59648,2.33965 -29.42848,9.0852 -42.1095,12.66192 0.97149,19.52343 3.51727,48.09751 3.15773,66.14358 9.34606,-5.8197 31.5362,-14.86716 39.32045,-9.18896 -2.91381,-5.27261 -5.26248,-17.49409 -2.79814,-36.67475 -0.34626,-11.5025 4.07819,-21.63785 2.42946,-32.94179 z"
           id="path3834"
           inkscape:connector-curvature="0"
           sodipodi:nodetypes="ccccccccccccccccccccc" /></g></g></g><g
     inkscape:groupmode="layer"
     id="layer3"
     inkscape:label="Layer#1"
     transform="translate(-0.76379466,0.88396145)"><path
       sodipodi:nodetypes="cccccc"
       inkscape:connector-curvature="0"
       id="path3924"
       d="m 157.84409,255.88561 c -4.26391,-1.12244 -14.69759,-1.65777 -17.16739,-1.48614 3.30984,-2.58383 8.88353,-6.96831 9.31278,-9.46445 3.33595,-1.71077 8.35439,-6.19303 12.39054,-6.11729 5.05593,0.16576 11.42824,6.85258 11.44462,13.16114 -4.02731,-3.09144 -11.16797,0.21044 -15.98055,3.90674 z"
       style="fill:#ffffff;fill-opacity:1" /><path
       style="fill:#231f20;fill-opacity:1"
       d="m 173.71835,248.97827 c -1.29152,-3.19867 -6.81244,-7.79255 -9.84971,-8.4406 -5.33628,0.74888 -11.4098,3.90622 -17.48138,9.14226 -2.51076,2.16524 -3.8599,0.75893 -4.5076,-0.79903 3.05524,-2.46704 5.41291,-3.33758 6.6696,-4.89566 3.33595,-1.97379 10.69475,-7.23521 14.7309,-7.14782 5.05593,0.19125 8.05167,4.08762 10.9485,7.85557 -0.55546,1.13027 0.58375,3.6982 -0.51031,4.28528 z"
       id="path3918"
       inkscape:connector-curvature="0"
       sodipodi:nodetypes="ccsccccc" /><path
       style="fill:#9b9390;fill-opacity:1"
       d="m 162.68441,187.01992 c 2.98946,-1.74559 5.91807,-3.60999 8.97202,-5.2364 2.3768,-0.91065 4.99082,-0.53216 7.43851,-1.14918 4.55589,-0.98357 9.2229,-1.66135 13.574,-3.40202 1.11807,-0.62887 -1.16161,0.9915 -1.35787,1.23329 -1.48597,1.39065 -3.58852,1.6819 -5.46601,2.26619 -3.51296,0.83996 -7.06095,1.54187 -10.61045,2.20415 -2.21786,0.41477 -4.58389,0.18508 -6.64897,1.2286 0.68718,-0.42697 2.95422,-1.71824 1.11806,-0.64633 -1.89479,1.25611 -3.88089,2.36879 -6.03349,3.11232 -0.3286,0.12979 -0.6572,0.25959 -0.9858,0.38938 z"
       id="path3926"
       inkscape:connector-curvature="0" /><path
       style="fill:#9b9390;fill-opacity:1"
       d="m 166.10478,192.79401 c 3.52871,-1.62741 7.06185,-3.27627 10.76795,-4.55611 2.21274,-0.56855 4.51985,0.0196 6.75457,-0.4299 2.97005,-0.41286 5.83699,-1.3301 8.54284,-2.50305 -1.07494,0.84707 -2.14989,1.69414 -3.22484,2.54121 -4.14372,1.67966 -8.68024,2.70695 -13.22041,2.53677 -2.51988,0.1248 -3.39811,-0.01 -5.66343,0.87287 -2.00022,0.88086 -5.30675,3.19737 -7.26589,4.14938 1.10308,-0.87038 2.2061,-1.74083 3.30921,-2.61117 z"
       id="path3928"
       inkscape:connector-curvature="0"
       sodipodi:nodetypes="ccccccccc" /><path
       style="fill:#9b9390;fill-opacity:1"
       d="m 165.32426,201.32784 c 2.98823,-1.09834 5.65611,-2.88781 8.55486,-4.17204 1.65299,-0.60938 3.04339,1.00942 4.71399,0.88205 4.00999,0.0316 7.61828,-2.01239 11.40347,-3.04902 0.98354,-0.48698 -0.61524,0.71363 -0.85707,1.01428 -0.60466,0.48589 -1.05788,1.24687 -1.91013,1.27803 -3.83391,1.03567 -7.54366,3.11188 -11.62628,2.77367 -1.43339,-0.11645 -2.78169,-1.31606 -4.23024,-0.65252 -2.92621,1.29072 -5.62317,3.07397 -8.62867,4.1935 0.86003,-0.75597 1.71997,-1.51205 2.58007,-2.26795 z"
       id="path3930"
       inkscape:connector-curvature="0" /><path
       style="fill:#9b9390;fill-opacity:1"
       d="m 169.67848,209.88777 c -1.42894,0.51218 -2.84821,1.05176 -4.28686,1.53656 3.12839,-1.50334 6.40486,-2.67684 9.69711,-3.76107 2.07949,-0.4232 3.96571,0.95783 6.03096,0.92069 2.61567,0.15847 5.18004,-0.54672 7.65335,-1.31613 -1.60127,0.84893 -3.16983,1.77542 -4.79161,2.57575 -3.25898,1.01274 -6.83848,1.5658 -10.15476,0.48255 -1.11378,-0.28036 -2.31239,-0.49008 -3.43464,-0.13338 1.13692,-0.42368 3.05652,-1.13703 3.70777,-1.38065 -3.05546,1.1335 -5.8567,2.94526 -9.06804,3.64874 1.5489,-0.85769 3.09785,-1.71532 4.64672,-2.57306 z"
       id="path3938"
       inkscape:connector-curvature="0" /><path
       style="fill:#9b9390;fill-opacity:1"
       d="m 168.70743,222.9962 c 4.03265,-1.2608 7.9752,-3.1685 12.26652,-3.29738 1.66255,0.0733 3.074,1.16598 4.7528,1.17242 1.4388,0.12387 2.89019,-0.0654 4.2796,-0.44066 -1.49631,0.83982 -3.0096,1.6537 -4.51351,2.48194 -2.5329,0.55923 -5.24493,0.42821 -7.63506,-0.61929 -2.99142,-0.68865 -5.93288,0.60533 -8.74439,1.47055 -1.68312,0.57539 -3.35285,1.18916 -5.03654,1.76292 1.54354,-0.84349 3.08701,-1.68712 4.63058,-2.53053 z"
       id="path3940"
       inkscape:connector-curvature="0" /><path
       style="fill:#9b9390;fill-opacity:1"
       d="m 141.70626,182.90014 c -4.93646,-0.91927 -9.85109,-2.63151 -14.94228,-1.97097 -3.10519,0.14622 -6.25262,0.25346 -9.31715,-0.36893 1.52556,0.80929 3.05113,1.61858 4.57669,2.42786 6.26238,0.95999 12.74918,-0.8711 18.88667,1.15719 1.20488,0.19566 4.84142,1.44528 4.70636,0.82029 -1.30343,-0.68847 -2.60686,-1.37696 -3.91029,-2.06544 z"
       id="path3950"
       inkscape:connector-curvature="0" /><path
       style="fill:#9b9390;fill-opacity:1"
       d="m 147.83694,197.93416 c -3.97562,-1.78686 -8.21231,-3.50034 -12.65965,-3.1385 -5.11989,0.16609 -10.21309,1.4629 -15.34704,0.81327 1.50891,0.78294 3.01781,1.56589 4.52672,2.34883 7.01987,0.61443 14.10905,-2.15244 21.04614,-0.17504 -1.12994,-0.46374 -4.1355,-1.9018 -4.01988,-1.54244 2.03085,0.96171 4.30898,1.11356 6.45371,1.69388 z"
       id="path3952"
       inkscape:connector-curvature="0" /><path
       style="fill:#9b9390;fill-opacity:1"
       d="m 144.08941,202.92493 c -5.74102,-0.62976 -11.43494,-2.73979 -17.26355,-1.67019 -1.07181,-0.0841 -5.18542,-0.0862 -2.4878,0.95073 1.04465,0.51964 2.0893,1.03929 3.13394,1.55894 4.83744,-0.338 9.77905,-0.8664 14.53219,0.41686 1.64025,0.21213 5.88066,1.38443 6.15533,0.87096 -1.3567,-0.70909 -2.7134,-1.41819 -4.07011,-2.1273 z"
       id="path3954"
       inkscape:connector-curvature="0" /><path
       style="fill:#9b9390;fill-opacity:1"
       d="m 147.60096,211.58741 c -6.05387,-0.85811 -12.15573,-1.13881 -18.19898,-0.55384 -2.63105,0.10974 -5.26464,0.25591 -7.90353,0.11222 1.36207,0.69546 2.72414,1.3909 4.08621,2.08637 7.4943,-0.0297 14.97972,-1.26037 22.4862,-0.0461 0.83668,-0.0102 3.66825,0.72895 3.31379,0.39442 -1.26123,-0.66436 -2.52247,-1.32871 -3.78369,-1.99307 z"
       id="path3956"
       inkscape:connector-curvature="0" /><path
       style="fill:#9b9390;fill-opacity:1"
       d="m 146.89821,225.26725 c -8.07473,1.75753 -16.49121,0.65712 -24.53031,2.64912 1.62807,0.48842 3.25612,0.97684 4.88419,1.46525 8.11332,-1.99265 16.5919,-0.97538 24.75253,-2.65012 -1.70214,-0.48808 -3.40427,-0.97618 -5.10641,-1.46425 z"
       id="path3958"
       inkscape:connector-curvature="0" /></g></svg>